<?xml version="1.0" encoding="UTF-8"?>
<!DOCTYPE svg PUBLIC "-//W3C//DTD SVG 1.1//EN" "http://www.w3.org/Graphics/SVG/1.1/DTD/svg11.dtd">
<svg xmlns="http://www.w3.org/2000/svg" version="1.1" width="155px" height="126" style="shape-rendering:geometricPrecision; text-rendering:geometricPrecision; image-rendering:optimizeQuality; fill-rule:evenodd; clip-rule:evenodd" xmlns:xlink="http://www.w3.org/1999/xlink">
<g><path style="opacity:0.984" fill="#262223" d="M 19.5,11.5 C 40.1667,11.5 60.8333,11.5 81.5,11.5C 81.5,15.5 81.5,19.5 81.5,23.5C 81.6663,30.175 81.4996,36.8417 81,43.5C 80.6174,42.944 80.1174,42.6107 79.5,42.5C 77.2893,32.9098 72.6226,24.7432 65.5,18C 60.3703,15.9199 55.037,15.0866 49.5,15.5C 49.5,32.1667 49.5,48.8333 49.5,65.5C 54.4466,66.3724 58.6132,65.0391 62,61.5C 64.6473,55.6605 67.1473,49.9938 69.5,44.5C 69.6666,60.8367 69.4999,77.1701 69,93.5C 68.7216,92.5842 68.2216,91.9175 67.5,91.5C 66.7103,83.5883 63.377,77.0883 57.5,72C 54.854,71.5026 52.1873,71.3359 49.5,71.5C 49.5,88.8333 49.5,106.167 49.5,123.5C 57.4553,124.264 64.4553,122.097 70.5,117C 76.7873,109.591 80.7873,101.091 82.5,91.5C 83.5,91.5 84.5,91.5 85.5,91.5C 85.5,93.8333 85.5,96.1667 85.5,98.5C 84.5062,107.986 84.1729,117.652 84.5,127.5C 62.5,127.5 40.5,127.5 18.5,127.5C 18.5,126.167 18.5,124.833 18.5,123.5C 20.8333,123.5 23.1667,123.5 25.5,123.5C 26.4984,87.3372 26.8318,51.0038 26.5,14.5C 24.1667,14.5 21.8333,14.5 19.5,14.5C 19.5,13.5 19.5,12.5 19.5,11.5 Z"/></g>
<g><path style="opacity:0.996" fill="#262222" d="M 116.5,11.5 C 116.5,22.5 116.5,33.5 116.5,44.5C 98.9293,43.9075 92.5959,52.2408 97.5,69.5C 92.7965,86.4498 99.1299,94.4498 116.5,93.5C 116.5,104.167 116.5,114.833 116.5,125.5C 119.388,124.99 121.721,125.656 123.5,127.5C 111.167,128.833 98.8333,128.833 86.5,127.5C 88.2789,125.656 90.6122,124.99 93.5,125.5C 93.8318,88.3296 93.4985,51.3296 92.5,14.5C 90.1667,14.5 87.8333,14.5 85.5,14.5C 85.5,13.5 85.5,12.5 85.5,11.5C 95.8333,11.5 106.167,11.5 116.5,11.5 Z"/></g>
<g><path style="opacity:0.99" fill="#231f20" d="M 125.5,11.5 C 135.5,11.5 145.5,11.5 155.5,11.5C 155.5,49.5 155.5,87.5 155.5,125.5C 157.924,125.192 160.257,125.526 162.5,126.5C 150.185,127.499 137.851,127.832 125.5,127.5C 125.5,126.5 125.5,125.5 125.5,124.5C 127.833,124.5 130.167,124.5 132.5,124.5C 132.5,114.167 132.5,103.833 132.5,93.5C 150.072,94.0896 156.405,85.7562 151.5,68.5C 151.333,62.5 151.167,56.5 151,50.5C 145.618,46.3141 139.452,44.3141 132.5,44.5C 132.5,34.5 132.5,24.5 132.5,14.5C 129.841,14.0826 127.508,13.0826 125.5,11.5 Z"/></g>
<g><path style="opacity:0.361" fill="#9b999a" d="M 155.5,11.5 C 156.498,48.9963 156.832,86.663 156.5,124.5C 158.833,124.5 161.167,124.5 163.5,124.5C 163.5,125.833 163.5,127.167 163.5,128.5C 150.656,128.829 137.989,128.495 125.5,127.5C 137.851,127.832 150.185,127.499 162.5,126.5C 160.257,125.526 157.924,125.192 155.5,125.5C 155.5,87.5 155.5,49.5 155.5,11.5 Z"/></g>
<g><path style="opacity:0.989" fill="#272324" d="M 165.5,11.5 C 186.167,11.5 206.833,11.5 227.5,11.5C 227.5,19.5 227.5,27.5 227.5,35.5C 228.036,38.6981 227.369,41.3647 225.5,43.5C 223.134,34.2663 218.8,26.0996 212.5,19C 209.673,17.3364 206.673,16.1697 203.5,15.5C 200.713,14.5233 197.713,14.19 194.5,14.5C 194.5,31.8333 194.5,49.1667 194.5,66.5C 197.385,66.8064 200.052,66.4731 202.5,65.5C 209.019,60.1339 212.686,53.1339 213.5,44.5C 214.5,44.5 215.5,44.5 216.5,44.5C 216.667,60.8367 216.5,77.1701 216,93.5C 214.605,94.8146 213.605,94.4812 213,92.5C 212.259,86.8683 210.593,81.535 208,76.5C 206.242,74.2345 204.075,72.5678 201.5,71.5C 199.393,70.5318 197.059,70.1984 194.5,70.5C 194.5,88.5 194.5,106.5 194.5,124.5C 197.713,124.81 200.713,124.477 203.5,123.5C 209.676,121.823 214.843,118.489 219,113.5C 223.324,106.521 226.824,99.1874 229.5,91.5C 230.499,103.482 230.832,115.482 230.5,127.5C 208.833,127.5 187.167,127.5 165.5,127.5C 165.5,126.5 165.5,125.5 165.5,124.5C 167.735,124.795 169.735,124.461 171.5,123.5C 172.498,87.3372 172.832,51.0038 172.5,14.5C 170.167,14.5 167.833,14.5 165.5,14.5C 165.5,13.5 165.5,12.5 165.5,11.5 Z"/></g>
<g><path style="opacity:0.584" fill="#676465" d="M 125.5,11.5 C 127.508,13.0826 129.841,14.0826 132.5,14.5C 129.833,14.5 127.167,14.5 124.5,14.5C 124.263,13.209 124.596,12.209 125.5,11.5 Z"/></g>
<g><path style="opacity:0.141" fill="#bcbbbb" d="M 92.5,14.5 C 93.4985,51.3296 93.8318,88.3296 93.5,125.5C 90.6122,124.99 88.2789,125.656 86.5,127.5C 85.8333,127.5 85.1667,127.5 84.5,127.5C 84.1729,117.652 84.5062,107.986 85.5,98.5C 85.5,107.167 85.5,115.833 85.5,124.5C 87.8333,124.5 90.1667,124.5 92.5,124.5C 92.5,87.8333 92.5,51.1667 92.5,14.5 Z"/></g>
<g><path style="opacity:0.141" fill="#c4c3c3" d="M 19.5,11.5 C 19.5,12.5 19.5,13.5 19.5,14.5C 21.8333,14.5 24.1667,14.5 26.5,14.5C 26.8318,51.0038 26.4984,87.3372 25.5,123.5C 25.5,87.5 25.5,51.5 25.5,15.5C 23.1667,15.5 20.8333,15.5 18.5,15.5C 18.2322,13.901 18.5655,12.5676 19.5,11.5 Z"/></g>
<g><path style="opacity:0.486" fill="#737071" d="M 165.5,11.5 C 165.5,12.5 165.5,13.5 165.5,14.5C 167.833,14.5 170.167,14.5 172.5,14.5C 172.832,51.0038 172.498,87.3372 171.5,123.5C 171.5,87.5 171.5,51.5 171.5,15.5C 169.167,15.5 166.833,15.5 164.5,15.5C 164.232,13.901 164.566,12.5676 165.5,11.5 Z"/></g>
<g><path style="opacity:0.361" fill="#929091" d="M 203.5,15.5 C 200.833,15.5 198.167,15.5 195.5,15.5C 195.5,32.1667 195.5,48.8333 195.5,65.5C 197.833,65.5 200.167,65.5 202.5,65.5C 200.052,66.4731 197.385,66.8064 194.5,66.5C 194.5,49.1667 194.5,31.8333 194.5,14.5C 197.713,14.19 200.713,14.5233 203.5,15.5 Z"/></g>
<g><path style="opacity:0.447" fill="#848283" d="M 81.5,23.5 C 82.4912,30.3134 82.8245,37.3134 82.5,44.5C 80.8212,44.7148 79.8212,44.0481 79.5,42.5C 80.1174,42.6107 80.6174,42.944 81,43.5C 81.4996,36.8417 81.6663,30.175 81.5,23.5 Z"/></g>
<g><path style="opacity:0.251" fill="#a5a3a4" d="M 227.5,35.5 C 228.477,38.2869 228.81,41.2869 228.5,44.5C 227.209,44.7373 226.209,44.404 225.5,43.5C 227.369,41.3647 228.036,38.6981 227.5,35.5 Z"/></g>
<g><path style="opacity:0.4" fill="#8b8989" d="M 69.5,44.5 C 70.4965,60.9916 70.8298,77.6583 70.5,94.5C 69.5,94.5 68.5,94.5 67.5,94.5C 67.5,93.5 67.5,92.5 67.5,91.5C 68.2216,91.9175 68.7216,92.5842 69,93.5C 69.4999,77.1701 69.6666,60.8367 69.5,44.5 Z"/></g>
<g><path style="opacity:1" fill="#e5b04d" d="M 116.5,11.5 C 117.495,22.3206 117.828,33.3206 117.5,44.5C 122.5,44.5 127.5,44.5 132.5,44.5C 139.452,44.3141 145.618,46.3141 151,50.5C 151.167,56.5 151.333,62.5 151.5,68.5C 156.405,85.7562 150.072,94.0896 132.5,93.5C 127.5,93.5 122.5,93.5 117.5,93.5C 117.167,93.5 116.833,93.5 116.5,93.5C 99.1299,94.4498 92.7965,86.4498 97.5,69.5C 92.5959,52.2408 98.9293,43.9075 116.5,44.5C 116.5,33.5 116.5,22.5 116.5,11.5 Z"/></g>
<g><path style="opacity:1" fill="#fbfbfb" d="M 132.5,46.5 C 132.5,61.5 132.5,76.5 132.5,91.5C 127.167,92.8333 121.833,92.8333 116.5,91.5C 116.5,76.5 116.5,61.5 116.5,46.5C 121.933,45.1979 127.266,45.1979 132.5,46.5 Z"/></g>
<g><path style="opacity:1" fill="#231f20" d="M 116.5,46.5 C 116.5,61.5 116.5,76.5 116.5,91.5C 115.169,84.3644 114.503,76.8644 114.5,69C 114.503,61.1356 115.169,53.6356 116.5,46.5 Z"/></g>
<g><path style="opacity:1" fill="#231f20" d="M 132.5,46.5 C 133.831,53.6356 134.497,61.1356 134.5,69C 134.497,76.8644 133.831,84.3644 132.5,91.5C 132.5,76.5 132.5,61.5 132.5,46.5 Z"/></g>
<g><path style="opacity:0.361" fill="#8f8d8e" d="M 201.5,71.5 C 199.5,71.5 197.5,71.5 195.5,71.5C 195.5,88.8333 195.5,106.167 195.5,123.5C 198.167,123.5 200.833,123.5 203.5,123.5C 200.713,124.477 197.713,124.81 194.5,124.5C 194.5,106.5 194.5,88.5 194.5,70.5C 197.059,70.1984 199.393,70.5318 201.5,71.5 Z"/></g>
<g><path style="opacity:0.141" fill="#bebdbd" d="M 116.5,93.5 C 116.833,93.5 117.167,93.5 117.5,93.5C 117.5,103.833 117.5,114.167 117.5,124.5C 119.833,124.5 122.167,124.5 124.5,124.5C 124.737,125.791 124.404,126.791 123.5,127.5C 121.721,125.656 119.388,124.99 116.5,125.5C 116.5,114.833 116.5,104.167 116.5,93.5 Z"/></g>
<g><path style="opacity:0.506" fill="#6c696a" d="M 171.5,123.5 C 169.735,124.461 167.735,124.795 165.5,124.5C 165.5,125.5 165.5,126.5 165.5,127.5C 164.566,126.432 164.232,125.099 164.5,123.5C 166.833,123.5 169.167,123.5 171.5,123.5 Z"/></g>
<g><path style="opacity:0.662" fill="#000000" d="M 18.5,129.5 C 21.5,129.5 24.5,129.5 27.5,129.5C 27.5,130.5 27.5,131.5 27.5,132.5C 25.5,132.5 23.5,132.5 21.5,132.5C 21.5,133.5 21.5,134.5 21.5,135.5C 29.5,136.167 29.5,136.833 21.5,137.5C 21.5,139.167 21.5,140.833 21.5,142.5C 23.604,142.201 25.604,142.534 27.5,143.5C 24.5719,144.484 21.5719,144.817 18.5,144.5C 18.5,139.5 18.5,134.5 18.5,129.5 Z"/></g>
<g><path style="opacity:0.565" fill="#000000" d="M 28.5,129.5 C 29.5,129.5 30.5,129.5 31.5,129.5C 31.5,134.5 31.5,139.5 31.5,144.5C 30.5,144.5 29.5,144.5 28.5,144.5C 28.5,139.5 28.5,134.5 28.5,129.5 Z"/></g>
<g><path style="opacity:0.619" fill="#000000" d="M 32.5,129.5 C 33.5,129.5 34.5,129.5 35.5,129.5C 35.5,130.833 35.5,132.167 35.5,133.5C 40.9185,132.094 43.2518,134.094 42.5,139.5C 42.1667,141.167 41.8333,142.833 41.5,144.5C 40.6816,141.893 40.1816,139.226 40,136.5C 38.9505,135.483 37.7839,135.316 36.5,136C 35.5562,138.719 35.2229,141.552 35.5,144.5C 34.5,144.5 33.5,144.5 32.5,144.5C 32.5,139.5 32.5,134.5 32.5,129.5 Z"/></g>
<g><path style="opacity:0.598" fill="#000000" d="M 101.5,129.5 C 102.5,129.5 103.5,129.5 104.5,129.5C 104.5,133.833 104.5,138.167 104.5,142.5C 106.288,142.215 107.955,142.548 109.5,143.5C 106.914,144.48 104.247,144.813 101.5,144.5C 101.5,139.5 101.5,134.5 101.5,129.5 Z"/></g>
<g><path style="opacity:0.522" fill="#000000" d="M 122.5,129.5 C 123.5,129.5 124.5,129.5 125.5,129.5C 125.5,130.5 125.5,131.5 125.5,132.5C 124.5,132.5 123.5,132.5 122.5,132.5C 122.5,131.5 122.5,130.5 122.5,129.5 Z"/></g>
<g><path style="opacity:0.484" fill="#000000" d="M 126.5,129.5 C 127.5,129.5 128.5,129.5 129.5,129.5C 129.5,134.5 129.5,139.5 129.5,144.5C 128.5,144.5 127.5,144.5 126.5,144.5C 126.5,139.5 126.5,134.5 126.5,129.5 Z"/></g>
<g><path style="opacity:0.576" fill="#000000" d="M 149.5,129.5 C 152.93,129.107 156.096,129.773 159,131.5C 160.037,134.671 159.204,137.171 156.5,139C 157.289,140.626 158.289,142.126 159.5,143.5C 158.635,144.583 157.635,144.749 156.5,144C 155.213,142.59 154.046,141.09 153,139.5C 152.506,141.134 152.34,142.801 152.5,144.5C 151.5,144.5 150.5,144.5 149.5,144.5C 149.5,139.5 149.5,134.5 149.5,129.5 Z M 152.5,132.5 C 153.833,132.5 155.167,132.5 156.5,132.5C 156.5,133.5 156.5,134.5 156.5,135.5C 155.167,135.5 153.833,135.5 152.5,135.5C 152.5,134.5 152.5,133.5 152.5,132.5 Z"/></g>
<g><path style="opacity:0.718" fill="#000000" d="M 174.5,129.5 C 176.117,130.589 176.95,132.256 177,134.5C 179.139,133.231 181.305,133.231 183.5,134.5C 184.757,137.823 184.757,141.156 183.5,144.5C 181.078,132.633 178.411,132.633 175.5,144.5C 174.506,139.544 174.173,134.544 174.5,129.5 Z"/></g>
<g><path style="opacity:0.564" fill="#000000" d="M 229.5,129.5 C 232.957,129.667 233.29,130.667 230.5,132.5C 229.614,131.675 229.281,130.675 229.5,129.5 Z"/></g>
<g><path style="opacity:0.65" fill="#000000" d="M 84.5,130.5 C 90.5595,129.864 91.8928,132.031 88.5,137C 89.3333,137.833 90.1667,138.667 91,139.5C 91.7175,138.549 92.5509,138.383 93.5,139C 92.9109,140.873 93.5776,142.54 95.5,144C 93.765,144.651 92.0983,144.485 90.5,143.5C 86.3007,146.726 83.3007,145.893 81.5,141C 81.9903,139.018 82.9903,137.351 84.5,136C 83.2475,134.172 83.2475,132.339 84.5,130.5 Z M 85.5,138.5 C 89.6099,140.746 89.2765,142.079 84.5,142.5C 84.4326,141.041 84.7659,139.708 85.5,138.5 Z"/></g>
<g><path style="opacity:0.711" fill="#000000" d="M 46.5,133.5 C 49.5,133.5 52.5,133.5 55.5,133.5C 55.5,137.167 55.5,140.833 55.5,144.5C 45.2661,146.286 42.2661,142.62 46.5,133.5 Z M 48.5,135.5 C 53.4928,135.997 54.4928,138.164 51.5,142C 46.3823,141.824 45.3823,139.658 48.5,135.5 Z"/></g>
<g><path style="opacity:0.59" fill="#000000" d="M 57.5,133.5 C 62.6647,133.809 67.6647,133.976 72.5,134C 73,134.5 73.5,135 74,135.5C 74.498,138.482 74.6646,141.482 74.5,144.5C 73.5,144.5 72.5,144.5 71.5,144.5C 71.5,141.5 71.5,138.5 71.5,135.5C 70.1779,135.33 69.0113,135.663 68,136.5C 67.5026,139.146 67.3359,141.813 67.5,144.5C 66.5,144.5 65.5,144.5 64.5,144.5C 64.5,141.5 64.5,138.5 64.5,135.5C 63.1779,135.33 62.0113,135.663 61,136.5C 60.5026,139.146 60.3359,141.813 60.5,144.5C 59.5,144.5 58.5,144.5 57.5,144.5C 57.5,140.833 57.5,137.167 57.5,133.5 Z"/></g>
<g><path style="opacity:0.671" fill="#000000" d="M 112.5,133.5 C 114.857,133.337 117.19,133.503 119.5,134C 121.155,135.444 121.822,137.278 121.5,139.5C 118.482,139.335 115.482,139.502 112.5,140C 114.707,143.01 117.207,143.177 120,140.5C 121.726,141.648 121.559,142.815 119.5,144C 114.31,145.805 110.976,144.138 109.5,139C 110.124,136.915 111.124,135.082 112.5,133.5 Z M 114.5,135.5 C 116.103,135.312 117.437,135.812 118.5,137C 116.833,137.667 115.167,137.667 113.5,137C 114.056,136.617 114.389,136.117 114.5,135.5 Z"/></g>
<g><path style="opacity:0.478" fill="#000000" d="M 122.5,133.5 C 123.5,133.5 124.5,133.5 125.5,133.5C 125.5,137.167 125.5,140.833 125.5,144.5C 124.5,144.5 123.5,144.5 122.5,144.5C 122.5,140.833 122.5,137.167 122.5,133.5 Z"/></g>
<g><path style="opacity:0.639" fill="#000000" d="M 132.5,133.5 C 135.833,133.5 139.167,133.5 142.5,133.5C 142.5,137.167 142.5,140.833 142.5,144.5C 131.784,146.802 128.451,143.136 132.5,133.5 Z M 134.5,135.5 C 139.328,135.385 140.661,137.552 138.5,142C 133.177,142.18 131.843,140.014 134.5,135.5 Z"/></g>
<g><path style="opacity:0.699" fill="#000000" d="M 163.5,133.5 C 166.347,133.782 169.013,133.782 171.5,133.5C 172.833,137.167 172.833,140.833 171.5,144.5C 168.998,144.379 166.332,144.212 163.5,144C 159.565,140.504 159.565,137.004 163.5,133.5 Z M 165.5,135.5 C 170.472,135.952 171.472,138.119 168.5,142C 163.382,141.824 162.382,139.658 165.5,135.5 Z"/></g>
<g><path style="opacity:0.722" fill="#000000" d="M 186.5,133.5 C 191.652,133.951 196.652,134.117 201.5,134C 202.791,137.455 202.791,140.955 201.5,144.5C 199.546,132.629 197.213,132.629 194.5,144.5C 192.546,132.629 190.213,132.629 187.5,144.5C 186.511,140.893 186.177,137.226 186.5,133.5 Z"/></g>
<g><path style="opacity:0.716" fill="#000000" d="M 206.5,133.5 C 209.5,133.5 212.5,133.5 215.5,133.5C 215.5,137.167 215.5,140.833 215.5,144.5C 205.266,146.286 202.266,142.62 206.5,133.5 Z M 208.5,135.5 C 213.493,135.997 214.493,138.164 211.5,142C 206.382,141.824 205.382,139.658 208.5,135.5 Z"/></g>
<g><path style="opacity:0.634" fill="#000000" d="M 217.5,133.5 C 220.777,133.216 223.943,133.549 227,134.5C 227.824,137.882 227.657,141.216 226.5,144.5C 225.682,141.893 225.182,139.226 225,136.5C 223.286,135.075 221.953,135.408 221,137.5C 220.503,139.81 220.337,142.143 220.5,144.5C 219.5,144.5 218.5,144.5 217.5,144.5C 217.5,140.833 217.5,137.167 217.5,133.5 Z"/></g>
<g><path style="opacity:0.837" fill="#000000" d="M 229.5,133.5 C 230.787,134.871 231.453,136.705 231.5,139C 231.167,140.833 230.833,142.667 230.5,144.5C 229.511,140.893 229.177,137.226 229.5,133.5 Z"/></g>
</svg>
